<?xml version="1.0" standalone="no"?><!DOCTYPE svg PUBLIC "-//W3C//DTD SVG 1.1//EN" "http://www.w3.org/Graphics/SVG/1.1/DTD/svg11.dtd"><svg t="1545186793344" class="icon" style="" viewBox="0 0 1024 1024" version="1.1" xmlns="http://www.w3.org/2000/svg" p-id="5223" xmlns:xlink="http://www.w3.org/1999/xlink" width="64" height="64"><defs><style type="text/css"></style></defs><path d="M825.757001 495.719198 952.133331 369.075847c10.846467-10.901281 10.846467-28.520567-0.026607-39.394219-10.875121-10.832719-28.479778-10.847046-39.354899 0.027629l-126.485829 126.740566L659.782215 329.709257c-10.875121-10.873652-28.508432-10.860349-39.383553-0.027629-10.846467 10.873652-10.846467 28.492938-0.025584 39.394219l126.402937 126.643352-126.402937 126.603443c-10.81986 10.901281-10.81986 28.520567 0.025584 39.393195 5.451375 5.41022 12.565692 8.135284 19.677961 8.135284 7.1399 0 14.280823-2.725064 19.705592-8.162914l126.484805-126.716007 126.485829 126.716007c5.423745 5.436826 12.563645 8.162914 19.704568 8.162914 7.113293 0 14.225562-2.725064 19.650331-8.135284 10.873074-10.872628 10.873074-28.491914 0.026607-39.393195L825.757001 495.719198zM473.854187 155.018609c-9.48439-4.673439-20.712566-3.665483-29.133698 2.616594l-228.196399 170.792874L97.614108 328.428078c-15.398319 0-27.852466 12.45466-27.852466 27.839045l0 315.600935c0 15.383362 12.454147 27.839045 27.852466 27.839045l118.908959 0 228.196399 170.791851c4.905931 3.679809 10.764599 5.54632 16.651921 5.54632 4.250988 0 8.503-0.981351 12.481777-2.929726 9.402523-4.740978 15.344082-14.361079 15.344082-24.908296L489.197245 179.927929C489.198269 169.379689 483.256709 159.76061 473.854187 155.018609zM433.545527 792.597723 242.441405 649.562029c-4.797456-3.583618-10.656124-5.54632-16.651921-5.54632l-100.376124 0L125.41336 384.119471l100.376124 0c5.995797 0 11.854465-1.961678 16.651921-5.54632l191.104123-143.035694L433.545527 792.597723z" p-id="5224" fill="#ffffff"></path></svg>