<?xml version="1.0" standalone="no"?><!DOCTYPE svg PUBLIC "-//W3C//DTD SVG 1.1//EN" "http://www.w3.org/Graphics/SVG/1.1/DTD/svg11.dtd"><svg t="1545186802585" class="icon" style="" viewBox="0 0 1024 1024" version="1.1" xmlns="http://www.w3.org/2000/svg" p-id="5403" xmlns:xlink="http://www.w3.org/1999/xlink" width="64" height="64"><defs><style type="text/css"></style></defs><path d="M840.087968 168.005388c-10.785066-11.281951-28.760176-11.697413-40.043612-0.939395-11.311067 10.797927-11.725523 28.67611-0.93841 39.959084 70.7942 73.998341 111.389397 182.550663 111.389397 297.807686 0 115.270327-40.595197 223.823672-111.417027 297.835316-10.786089 11.281951-10.372657 29.160133 0.93841 39.945781 5.477983 5.211698 12.528851 7.810896 19.552089 7.810896 7.466348 0 14.906089-2.929726 20.4905-8.751315 80.749331-84.398202 127.071184-207.1622 127.071184-336.840678C967.130498 375.181915 920.809668 252.41587 840.087968 168.005388zM745.179593 254.449179c-11.171892-10.867512-29.091741-10.674107-40.043612 0.497327-10.922195 11.18576-10.701151 29.063943 0.498371 39.959084 52.127307 50.770314 82.048983 127.314641 82.048983 209.954803 0 82.640162-29.921676 159.142533-82.048983 209.91387-11.199522 10.907421-11.420565 28.785603-0.498371 39.95806 5.558827 5.682419 12.914653 8.53028 20.271503 8.53028 7.13376 0 14.268543-2.681062 19.772109-8.032954 62.995264-61.362556 99.13992-152.615886 99.13992-250.369258C844.319512 407.065066 808.173833 315.825039 745.179593 254.449179zM648.721868 340.407923c-12.112348-9.886161-29.949306-7.977695-39.849176 4.050246-9.872239 12.085246-8.046586 29.892821 4.065762 39.765679 32.52098 26.435069 51.933894 71.538313 51.933894 120.635521 0 48.393173-18.997435 93.120864-50.800024 119.641891-12.00285 10.008958-13.57983 27.831882-3.567392 39.819914 5.614088 6.662747 13.660674 10.120498 21.764568 10.120498 6.387739 0 12.831762-2.156106 18.141916-6.566556 44.521784-37.139875 71.098134-98.099249 71.098134-163.014724C721.507504 438.934914 694.295654 377.490493 648.721868 340.407923zM472.289488 140.532687c-9.568305-4.729721-21.100415-3.76065-29.645372 2.641153L210.350231 316.488141 89.279961 316.488141c-15.651086 0-28.317066 12.637832-28.317066 28.247344l0 320.235488c0 15.623839 12.66598 28.260647 28.317066 28.260647l121.07027 0 232.293885 173.300998c4.976542 3.733021 10.949825 5.626137 16.950738 5.626137 4.314436 0 8.684132-0.994654 12.69361-2.970658 9.568305-4.798283 15.624479-14.57495 15.624479-25.275663L487.912943 165.807327C487.912943 155.092287 481.856769 145.329946 472.289488 140.532687zM431.277788 787.514961 236.731122 642.35079c-4.894674-3.63683-10.840327-5.628184-16.951762-5.628184l-102.181311 0L117.59805 372.997156l102.181311 0c6.112458 0 12.057088-1.991354 16.951762-5.627161l194.546666-145.164171L431.277788 787.514961z" p-id="5404" fill="#ffffff"></path></svg>